<?xml version="1.0" encoding="UTF-8"?>
<svg id="Layer_1" data-name="Layer 1" xmlns="http://www.w3.org/2000/svg" viewBox="0 0 3883.89 1176.84">
  <defs>
    <style>
      .cls-1, .cls-2 {
        fill: #0f1324;
      }

      .cls-2 {
        opacity: .1;
      }
    </style>
  </defs>
  <path class="cls-2" d="M0,1175.72C195.84,783.69,391.18,392.68,587.35,0c2.51,3.92,4.26,6.18,5.51,8.69,32.63,65.17,65.29,130.33,97.59,195.66,1.8,3.64,2.29,9.56.58,13.04-20.65,42.12-41.82,83.98-62.9,125.89-.73,1.46-1.87,2.72-3.89,5.59-12.04-23.74-23.56-46.45-36.39-71.73-129.25,258.77-257.44,515.43-386.54,773.9,4.87.42,8.29.97,11.71.98,39.49.08,78.99-.16,118.48.27,8.03.09,11.83-2.82,15.32-9.81,85.04-170.63,170.29-341.16,255.57-511.67,40-79.98,80.11-159.89,120.18-239.83,1.46-2.9,3.08-5.72,5.94-11.03,129.06,258.1,257.05,514.06,385.77,771.5h-564.5c1.21-3.19,1.94-5.71,3.09-8.02,17.26-34.75,34.89-69.33,51.68-104.31,4.26-8.88,9.34-12.04,19.24-12,91.82.38,183.63.21,275.45.21,3.89,0,7.78,0,13.95,0-61.98-123.93-122.84-245.63-184.82-369.58-5.62,10.82-10.18,19.32-14.5,27.96-67.42,134.93-134.81,269.87-202.22,404.8-29.56,59.17-59.22,118.28-88.57,177.55-3.09,6.23-6.62,8.8-13.8,8.79-133.67-.2-267.35-.13-401.03-.16-2.23,0-4.46-.5-8.27-.96Z"/>
  <g>
    <path class="cls-1" d="M1559.56,385.11h.83v74.68h-74.68v-74.68h73.86ZM1559.56,468.1h.83v74.68h-74.68v-74.68h73.86ZM1559.56,717.04h.83v74.69h-74.68v-74.69h73.86ZM1642.54,302.13h.83v74.69h-74.68v-74.69h73.85ZM1642.54,551.07h.83v74.69h-74.68v-74.69h73.85ZM1642.54,800.03h.83v74.68h-74.68v-74.68h73.85ZM1725.53,302.13h.83v74.69h-74.69v-74.69h73.86ZM1725.53,551.07h.83v74.69h-74.69v-74.69h73.86ZM1725.53,800.03h.83v74.68h-74.69v-74.68h73.86ZM1808.52,302.13h.83v74.69h-74.68v-74.69h73.86ZM1808.52,551.07h.83v74.69h-74.68v-74.69h73.86ZM1808.52,800.03h.83v74.68h-74.68v-74.68h73.86ZM1891.5,385.11h.83v74.68h-74.68v-74.68h73.85ZM1891.5,634.06h.83v74.69h-74.68v-74.69h73.85ZM1891.5,717.04h.83v74.69h-74.68v-74.69h73.85Z"/>
    <path class="cls-1" d="M2057.45,385.11h.83v74.68h-74.68v-74.68h73.86ZM2057.45,468.1h.83v74.68h-74.68v-74.68h73.86ZM2057.45,551.07h.83v74.69h-74.68v-74.69h73.86ZM2057.45,634.06h.83v74.69h-74.68v-74.69h73.86ZM2057.45,717.04h.83v74.69h-74.68v-74.69h73.86ZM2140.43,302.13h.83v74.69h-74.68v-74.69h73.85ZM2140.43,800.03h.83v74.68h-74.68v-74.68h73.85ZM2223.42,302.13h.83v74.69h-74.69v-74.69h73.86ZM2223.42,800.03h.83v74.68h-74.69v-74.68h73.86ZM2306.41,302.13h.83v74.69h-74.68v-74.69h73.86ZM2306.41,800.03h.83v74.68h-74.68v-74.68h73.86ZM2389.38,385.11h.83v74.68h-74.68v-74.68h73.85ZM2389.38,717.04h.83v74.69h-74.68v-74.69h73.85Z"/>
    <path class="cls-1" d="M2555.34,385.11h.83v74.68h-74.68v-74.68h73.86ZM2555.34,468.1h.83v74.68h-74.68v-74.68h73.86ZM2555.34,551.07h.83v74.69h-74.68v-74.69h73.86ZM2555.34,634.06h.83v74.69h-74.68v-74.69h73.86ZM2555.34,717.04h.83v74.69h-74.68v-74.69h73.86ZM2638.32,302.13h.83v74.69h-74.68v-74.69h73.85ZM2638.32,800.03h.83v74.68h-74.68v-74.68h73.85ZM2721.31,302.13h.83v74.69h-74.69v-74.69h73.86ZM2721.31,800.03h.83v74.68h-74.69v-74.68h73.86ZM2804.29,302.13h.83v74.69h-74.68v-74.69h73.86ZM2804.29,800.03h.83v74.68h-74.68v-74.68h73.86ZM2887.27,385.11h.83v74.68h-74.68v-74.68h73.85ZM2887.27,468.1h.83v74.68h-74.68v-74.68h73.85ZM2887.27,551.07h.83v74.69h-74.68v-74.69h73.85ZM2887.27,634.06h.83v74.69h-74.68v-74.69h73.85ZM2887.27,717.04h.83v74.69h-74.68v-74.69h73.85Z"/>
    <path class="cls-1" d="M3053.23,302.13h.83v74.69h-74.68v-74.69h73.86ZM3053.23,385.11h.83v74.68h-74.68v-74.68h73.86ZM3053.23,468.1h.83v74.68h-74.68v-74.68h73.86ZM3053.23,551.07h.83v74.69h-74.68v-74.69h73.86ZM3053.23,634.06h.83v74.69h-74.68v-74.69h73.86ZM3053.23,717.04h.83v74.69h-74.68v-74.69h73.86ZM3053.23,800.03h.83v74.68h-74.68v-74.68h73.86ZM3136.21,302.13h.83v74.69h-74.68v-74.69h73.85ZM3136.21,551.07h.83v74.69h-74.68v-74.69h73.85ZM3219.2,302.13h.83v74.69h-74.69v-74.69h73.86ZM3219.2,551.07h.83v74.69h-74.69v-74.69h73.86ZM3219.2,634.06h.83v74.69h-74.69v-74.69h73.86ZM3302.18,302.13h.83v74.69h-74.68v-74.69h73.86ZM3302.18,551.07h.83v74.69h-74.68v-74.69h73.86ZM3302.18,717.04h.83v74.69h-74.68v-74.69h73.86ZM3385.16,385.11h.83v74.68h-74.68v-74.68h73.85ZM3385.16,468.1h.83v74.68h-74.68v-74.68h73.85ZM3385.16,800.03h.83v74.68h-74.68v-74.68h73.85Z"/>
    <path class="cls-1" d="M3551.12,302.13h.83v74.69h-74.68v-74.69h73.86ZM3551.12,385.11h.83v74.68h-74.68v-74.68h73.86ZM3551.12,468.1h.83v74.68h-74.68v-74.68h73.86ZM3551.12,551.07h.83v74.69h-74.68v-74.69h73.86ZM3551.12,634.06h.83v74.69h-74.68v-74.69h73.86ZM3551.12,717.04h.83v74.69h-74.68v-74.69h73.86ZM3551.12,800.03h.83v74.68h-74.68v-74.68h73.86ZM3634.1,302.13h.83v74.69h-74.68v-74.69h73.85ZM3634.1,551.07h.83v74.69h-74.68v-74.69h73.85ZM3634.1,800.03h.83v74.68h-74.68v-74.68h73.85ZM3717.09,302.13h.83v74.69h-74.69v-74.69h73.86ZM3717.09,551.07h.83v74.69h-74.69v-74.69h73.86ZM3717.09,800.03h.83v74.68h-74.69v-74.68h73.86ZM3800.07,302.13h.83v74.69h-74.68v-74.69h73.86ZM3800.07,551.07h.83v74.69h-74.68v-74.69h73.86ZM3800.07,800.03h.83v74.68h-74.68v-74.68h73.86ZM3883.05,302.13h.83v74.69h-74.68v-74.69h73.85ZM3883.05,800.03h.83v74.68h-74.68v-74.68h73.85Z"/>
  </g>
</svg>